# xmcd
#
# Track frame offsets:
#	150
#	13735
#	25105
#	36385
#	48593
#	60783
#	71314
#	83466
#	96088
#	109036
#	121782
#	134153
#
# Disc length: 1920 seconds
#
# Revision: 1
# Processed by: cddbd v1.5.1PL0 Copyright (c) Steve Scherf et al.
# Submitted via: audiograbber 1.83.01
#
DISCID=93077e0c
DTITLE=Stonewall Jackson - Stonewall Jackson's Greatest Hits
DYEAR=1965
DGENRE=Country
TTITLE0=Don't Be Angry
TTITLE1=Life To Go
TTITLE2=Waterloo
TTITLE3=Smoke Along the Track
TTITLE4=Second Chance
TTITLE5=Why I'm Walkin'
TTITLE6=A Wound Time Can't Erase
TTITLE7=Leona
TTITLE8=Old Showboat
TTITLE9=B.J. the D.J.
TTITLE10=I Washed My Hands In Muddy Water
TTITLE11=Lost In the Shuffle
EXTD=Columbia CS-9177
EXTT0=
EXTT1=
EXTT2=
EXTT3=
EXTT4=
EXTT5=
EXTT6=
EXTT7=
EXTT8=
EXTT9=
EXTT10=
EXTT11=
PLAYORDER=
